<svg id="Layer_1" data-name="Layer 1" xmlns="http://www.w3.org/2000/svg" xmlns:xlink="http://www.w3.org/1999/xlink" viewBox="0 0 765.3 346.15">
  <defs>
    <clipPath id="clip-path" transform="translate(-70 -74.86)">
      <text transform="translate(377.73 348.61)" font-size="230" fill="none" stroke="#74b7e1" stroke-miterlimit="10" font-family="Autography">Hou</text>
    </clipPath>
    <clipPath id="clip-path-2" transform="translate(-70 -74.86)">
      <text transform="translate(119.03 232.36)" font-size="230" fill="none" stroke="#74b7e1" stroke-miterlimit="10" font-family="Autography">Z<tspan x="160.08" y="0" letter-spacing="0.01em">o</tspan><tspan x="226.09" y="0">ie</tspan></text>
    </clipPath>
  </defs>
  <g clip-path="url(#clip-path)">
    <path d="M119.5,87.5a341.62,341.62,0,0,0,76,4c33.84-2.14,48-4,48-4,22.62-3,40.56-6.91,42-3,.63,1.72-2.43,3.57-11,13-4.3,4.73-4.41,5.24-11,13-9.57,11.27-18.48,21-24,27-25.16,27.42-45.71,46.49-79,81-8.51,8.82-17.48,17.19-26,26a166.76,166.76,0,0,1-16,15c-13.84,11.25-20.44,12.61-23,13-9.27,1.42-18.12-1.78-18-3s8.62-.52,65.5.5c32.94.59,50.15.73,76.5,2.5,11.1.75,18.36,1.42,24,2,18.81,1.94,34.33,3.54,52,8,18.81,4.74,32.65,10.85,33,10,.67-1.62-53.18-13.22-65-48-.56-1.65-7-21.46,3-36,5.45-7.94,14.15-11.92,15-11,1,1.09-9.68,8.29-9,18,.37,5.27,4.08,11.46,10,13,6.36,1.65,11.79-3,13-4a18.21,18.21,0,0,0,3-24,17.46,17.46,0,0,0-8-6c-2.95-1.16-6.7-1.75-7-1-.35.9,4.26,3.63,7,5,2.44,1.22,8.61,4,23,4,13,0,19.85,0,25-5,1.29-1.25,2.72-3.05,5-9,5.22-13.6,7.2-28.74,6-29-1.9-.41-7.83,37.48-9,46a24.13,24.13,0,0,0,2,14,12.65,12.65,0,0,0,4,5c.77.54,3.25,2.12,9,2a35,35,0,0,0,15-4c2.08-1,2.74-1.54,12-8,7.28-5.08,10.94-7.62,12-8,8.17-2.92,11.49,1.32,18-2,4.6-2.35,9.21-7.66,8-12-.76-2.7-3.61-4.48-6-5-6.09-1.33-12.36,4.75-15,10-3.3,6.57-1.55,13.06-1,15a22.48,22.48,0,0,0,6,10c6.56,6.17,15.46,6.15,25,6,6.36-.1,13.31-.86,26-4a278.3,278.3,0,0,0,32-10c26.49-10,39.74-15,40-20,.59-11.1-36.47-28.62-51-17-3.62,2.89-4.91,6.84-7,21a471.28,471.28,0,0,0-5,65c-.07,23.7-.11,35.55,0,42,1,60.06,1.53,90.09,5,91,18.09,4.73,90.52-208.26,94-207,.73.27-1,10.18-2,15-.66,3.19-1.33,5.67-2,10-.65,4.18-.88,7.37-1,9-2.74,38.31-3,46-3,46-.9,26.42-1.38,40.26-1,56,1.25,52,10.89,87.32,8,88-2.37.56-4.72-24.28-23-50-15.92-22.41-35.73-33.95-53-44a213,213,0,0,0-68-25c-4.32-.79-37.67-6.73-40,0-1.29,3.74,7.44,10.13,10,12,5.75,4.21,11.23,6.05,22,9,11.52,3.15,17.28,4.73,24,6a437.55,437.55,0,0,0,61,7c19.83.86,34.65.21,39,0,14.88-.73,12.26-1.44,34-3,0,0,6.41-.46,22-3a37.34,37.34,0,0,0,8-2c6.59-2.52,10.65-6.41,11-6s-3.81,3-6,8c-.44,1-3.43,7.78,0,14a15.28,15.28,0,0,0,17,7c8.33-2.29,10.61-11.24,11-13,1.65-7.39-1.54-15.28-7-19-3.67-2.49-9-3.53-10-2-.81,1.22,1,4.19,3,6s5.25,3.68,21,3c9.3-.4,14-.6,19-2,10-2.75,15.86-7.42,17-6,1,1.19-3.43,4.28-5,11-.45,1.94-2,8.5,2,14,.18.25,4.35,5.83,11,6,7.87.2,13.35-7.35,16-11,5.93-8.16,6.61-16.2,8-16,1.73.24-1.9,12.39,4,20,3.31,4.26,9.06,6.41,26,7a213.2,213.2,0,0,0,39-2c15.25-2.54,34.94-6.3,58-12" transform="translate(-70 -74.86)" fill="none" stroke="#74b7e1" stroke-miterlimit="10" stroke-width="15"/>
  </g>
  <g clip-path="url(#clip-path-2)">
    <path d="M120.5,85.5a341.62,341.62,0,0,0,76,4c33.84-2.14,48-4,48-4,22.62-3,40.56-6.91,42-3,.63,1.72-2.43,3.57-11,13-4.3,4.73-4.41,5.24-11,13-9.57,11.27-18.48,21-24,27-25.16,27.42-45.71,46.49-79,81-8.51,8.82-17.48,17.19-26,26a166.76,166.76,0,0,1-16,15c-13.84,11.25-20.44,12.61-23,13-9.27,1.42-18.12-1.78-18-3s8.62-.52,65.5.5c32.94.59,50.15.73,76.5,2.5,11.1.75,18.36,1.42,24,2,18.81,1.94,34.33,3.54,52,8,18.81,4.74,32.65,10.85,33,10,.67-1.62-53.18-13.22-65-48-.56-1.65-7-21.46,3-36,5.45-7.94,14.15-11.92,15-11,1,1.09-9.68,8.29-9,18,.37,5.27,4.08,11.46,10,13,6.36,1.65,11.79-3,13-4a18.21,18.21,0,0,0,3-24,17.46,17.46,0,0,0-8-6c-2.95-1.16-6.7-1.75-7-1-.35.9,4.26,3.63,7,5,2.44,1.22,8.61,4,23,4,13,0,19.85,0,25-5,1.29-1.25,2.72-3.05,5-9,5.22-13.6,7.2-28.74,6-29-1.9-.41-7.83,37.48-9,46a24.13,24.13,0,0,0,2,14,12.65,12.65,0,0,0,4,5c.77.54,3.25,2.12,9,2a35,35,0,0,0,15-4c2.08-1,2.74-1.54,12-8,7.28-5.08,10.94-7.62,12-8,8.17-2.92,11.49,1.32,18-2,4.6-2.35,9.21-7.66,8-12-.76-2.7-3.61-4.48-6-5-6.09-1.33-12.36,4.75-15,10-3.3,6.57-1.55,13.06-1,15a22.48,22.48,0,0,0,6,10c6.56,6.17,15.46,6.15,25,6,6.36-.1,13.31-.86,26-4a278.3,278.3,0,0,0,32-10c26.49-10,39.74-15,40-20,.59-11.1-36.47-28.62-51-17-3.62,2.89-4.91,6.84-7,21a471.28,471.28,0,0,0-5,65c-.07,23.7-.11,35.55,0,42,1,60.06,1.53,90.09,5,91,18.09,4.73,90.52-208.26,94-207,.73.27-1,10.18-2,15-.66,3.19-1.33,5.67-2,10-.65,4.18-.88,7.37-1,9-2.74,38.31-3,46-3,46-.9,26.42-1.38,40.26-1,56,1.25,52,10.89,87.32,8,88-2.37.56-4.72-24.28-23-50-15.92-22.41-35.73-33.95-53-44a213,213,0,0,0-68-25c-4.32-.79-37.67-6.73-40,0-1.29,3.74,7.44,10.13,10,12,5.75,4.21,11.23,6.05,22,9,11.52,3.15,17.28,4.73,24,6a437.55,437.55,0,0,0,61,7c19.83.86,34.65.21,39,0,14.88-.73,12.26-1.44,34-3,0,0,6.41-.46,22-3a37.34,37.34,0,0,0,8-2c6.59-2.52,10.65-6.41,11-6s-3.81,3-6,8c-.44,1-3.43,7.78,0,14a15.28,15.28,0,0,0,17,7c8.33-2.29,10.61-11.24,11-13,1.65-7.39-1.54-15.28-7-19-3.67-2.49-9-3.53-10-2-.81,1.22,1,4.19,3,6s5.25,3.68,21,3c9.3-.4,14-.6,19-2,10-2.75,15.86-7.42,17-6,1,1.19-3.43,4.28-5,11-.45,1.94-2,8.5,2,14,.18.25,4.35,5.83,11,6,7.87.2,13.35-7.35,16-11,5.93-8.16,6.61-16.2,8-16,1.73.24-1.9,12.39,4,20,3.31,4.26,9.06,6.41,26,7a218.73,218.73,0,0,0,39-2,422.27,422.27,0,0,0,50-11" transform="translate(-70 -74.86)" fill="none" stroke="#74b7e1" stroke-miterlimit="10" stroke-width="12" opacity="0"/>
    <path d="M120.5,85.5a341.62,341.62,0,0,0,76,4c33.84-2.14,48-4,48-4,22.62-3,40.56-6.91,42-3,.63,1.72-2.43,3.57-11,13-4.3,4.73-4.41,5.24-11,13-9.57,11.27-18.48,21-24,27-25.16,27.42-45.71,46.49-79,81-8.51,8.82-17.48,17.19-26,26a166.76,166.76,0,0,1-16,15c-13.84,11.25-20.44,12.61-23,13-9.27,1.42-18.12-1.78-18-3s8.62-.52,65.5.5c32.94.59,50.15.73,76.5,2.5,11.1.75,18.36,1.42,24,2,18.81,1.94,34.33,3.54,52,8,18.81,4.74,32.65,10.85,33,10,.67-1.62-53.18-13.22-65-48-.56-1.65-7-21.46,3-36,5.45-7.94,14.15-11.92,15-11,1,1.09-9.68,8.29-9,18,.37,5.27,4.08,11.46,10,13,6.36,1.65,11.79-3,13-4a18.21,18.21,0,0,0,3-24,17.46,17.46,0,0,0-8-6c-2.95-1.16-6.7-1.75-7-1-.35.9,4.26,3.63,7,5,2.44,1.22,8.61,4,23,4,13,0,19.85,0,25-5,1.29-1.25,2.72-3.05,5-9,5.22-13.6,7.2-28.74,6-29-1.9-.41-7.83,37.48-9,46a24.13,24.13,0,0,0,2,14,12.65,12.65,0,0,0,4,5c.77.54,3.25,2.12,9,2a35,35,0,0,0,15-4c2.08-1,2.74-1.54,12-8,7.28-5.08,10.94-7.62,12-8,8.17-2.92,11.49,1.32,18-2,4.6-2.35,9.21-7.66,8-12-.76-2.7-3.61-4.48-6-5-6.09-1.33-12.36,4.75-15,10-3.3,6.57-1.55,13.06-1,15a22.48,22.48,0,0,0,6,10c6.56,6.17,15.46,6.15,25,6,6.36-.1,13.31-.86,26-4a278.3,278.3,0,0,0,32-10c26.49-10,39.74-15,40-20,.59-11.1-36.47-28.62-51-17-3.62,2.89-4.91,6.84-7,21a471.28,471.28,0,0,0-5,65c-.07,23.7-.11,35.55,0,42,1,60.06,1.53,90.09,5,91,18.09,4.73,90.52-208.26,94-207,.73.27-1,10.18-2,15-.66,3.19-1.33,5.67-2,10-.65,4.18-.88,7.37-1,9-2.74,38.31-3,46-3,46-.9,26.42-1.38,40.26-1,56,1.25,52,10.89,87.32,8,88-2.37.56-4.72-24.28-23-50-15.92-22.41-35.73-33.95-53-44a213,213,0,0,0-68-25c-4.32-.79-37.67-6.73-40,0-1.29,3.74,7.44,10.13,10,12,5.75,4.21,11.23,6.05,22,9,11.52,3.15,17.28,4.73,24,6a437.55,437.55,0,0,0,61,7c19.83.86,34.65.21,39,0,14.88-.73,12.26-1.44,34-3,0,0,6.41-.46,22-3a37.34,37.34,0,0,0,8-2c6.59-2.52,10.65-6.41,11-6s-3.81,3-6,8c-.44,1-3.43,7.78,0,14a15.28,15.28,0,0,0,17,7c8.33-2.29,10.61-11.24,11-13,1.65-7.39-1.54-15.28-7-19-3.67-2.49-9-3.53-10-2-.81,1.22,1,4.19,3,6s5.25,3.68,21,3c9.3-.4,14-.6,19-2,10-2.75,15.86-7.42,17-6,1,1.19-3.43,4.28-5,11-.45,1.94-2,8.5,2,14,.18.25,4.35,5.83,11,6,7.87.2,13.35-7.35,16-11,5.93-8.16,6.61-16.2,8-16,1.73.24-1.9,12.39,4,20,3.31,4.26,9.06,6.41,26,7a218.73,218.73,0,0,0,39-2,422.27,422.27,0,0,0,50-11" transform="translate(-70 -74.86)" fill="none" stroke="#74b7e1" stroke-miterlimit="10" stroke-width="12"/>
  </g>
</svg>
